# Blender v2.78 (sub 0) OBJ File: ''
# www.blender.org
o Cylinder.003
v 2.240389 1.085389 -0.060000
v 3.003131 1.877995 -0.060000
v 2.248823 1.077273 -0.058847
v 3.011565 1.869879 -0.058847
v 2.256933 1.069468 -0.055433
v 3.019675 1.862074 -0.055433
v 2.264408 1.062275 -0.049888
v 3.027150 1.854881 -0.049888
v 2.270959 1.055971 -0.042426
v 3.033701 1.848577 -0.042426
v 2.276336 1.050797 -0.033334
v 3.039078 1.843403 -0.033334
v 2.280331 1.046952 -0.022961
v 3.043073 1.839558 -0.022961
v 2.282791 1.044585 -0.011705
v 3.045533 1.837191 -0.011705
v 2.283622 1.043785 -0.000000
v 3.046364 1.836391 -0.000000
v 2.282791 1.044585 0.011705
v 3.045533 1.837191 0.011705
v 2.280331 1.046952 0.022961
v 3.043073 1.839558 0.022961
v 2.276336 1.050797 0.033334
v 3.039078 1.843403 0.033334
v 2.270959 1.055971 0.042426
v 3.033701 1.848577 0.042426
v 2.264408 1.062275 0.049888
v 3.027150 1.854881 0.049888
v 2.256933 1.069468 0.055433
v 3.019675 1.862074 0.055433
v 2.248823 1.077273 0.058847
v 3.011565 1.869879 0.058847
v 2.240389 1.085389 0.060000
v 3.003131 1.877995 0.060000
v 2.231955 1.093506 0.058847
v 2.994697 1.886112 0.058847
v 2.223844 1.101310 0.055433
v 2.986586 1.893917 0.055433
v 2.216370 1.108503 0.049888
v 2.979112 1.901109 0.049888
v 2.209818 1.114808 0.042426
v 2.972560 1.907414 0.042426
v 2.204442 1.119982 0.033334
v 2.967184 1.912588 0.033334
v 2.200447 1.123826 0.022961
v 2.963189 1.916433 0.022961
v 2.197987 1.126194 0.011705
v 2.960729 1.918800 0.011705
v 2.197156 1.126993 -0.000000
v 2.959898 1.919600 -0.000000
v 2.197987 1.126194 -0.011705
v 2.960729 1.918800 -0.011705
v 2.200447 1.123826 -0.022961
v 2.963189 1.916433 -0.022961
v 2.204442 1.119982 -0.033334
v 2.967184 1.912588 -0.033334
v 2.209819 1.114808 -0.042426
v 2.972560 1.907414 -0.042426
v 2.216370 1.108503 -0.049888
v 2.979112 1.901109 -0.049888
v 2.223844 1.101310 -0.055433
v 2.986586 1.893917 -0.055433
v 2.231955 1.093506 -0.058847
v 2.994697 1.886112 -0.058847
vn 0.0706 -0.0680 -0.9952
vn 0.2092 -0.2013 -0.9569
vn 0.3397 -0.3269 -0.8819
vn 0.4571 -0.4399 -0.7730
vn 0.5570 -0.5360 -0.6344
vn 0.6355 -0.6115 -0.4714
vn 0.6895 -0.6635 -0.2903
vn 0.7171 -0.6901 -0.0980
vn 0.7171 -0.6901 0.0980
vn 0.6895 -0.6635 0.2903
vn 0.6355 -0.6115 0.4714
vn 0.5570 -0.5360 0.6344
vn 0.4571 -0.4399 0.7730
vn 0.3397 -0.3269 0.8819
vn 0.2092 -0.2013 0.9569
vn 0.0706 -0.0680 0.9952
vn -0.0706 0.0680 0.9952
vn -0.2092 0.2013 0.9569
vn -0.3397 0.3269 0.8819
vn -0.4571 0.4399 0.7730
vn -0.5570 0.5360 0.6344
vn -0.6355 0.6115 0.4714
vn -0.6895 0.6635 0.2903
vn -0.7171 0.6901 0.0980
vn -0.7171 0.6901 -0.0980
vn -0.6895 0.6635 -0.2903
vn -0.6355 0.6115 -0.4714
vn -0.5570 0.5360 -0.6344
vn -0.4571 0.4399 -0.7730
vn -0.3397 0.3269 -0.8819
vn 0.6934 0.7206 0.0000
vn -0.2092 0.2013 -0.9569
vn -0.0706 0.0680 -0.9952
vn -0.6934 -0.7205 0.0000
vn -0.7171 0.6901 -0.0981
vn 0.6934 0.7205 -0.0001
vn 0.6935 0.7204 0.0001
vn 0.6933 0.7207 -0.0001
vn 0.6936 0.7204 0.0000
vn 0.6933 0.7206 -0.0000
vn 0.6934 0.7206 0.0002
vn 0.6934 0.7205 0.0000
vn 0.6932 0.7208 0.0000
vn 0.6934 0.7205 0.0001
vn 0.6935 0.7204 0.0000
vn -0.6934 -0.7206 0.0001
vn -0.6934 -0.7206 -0.0000
vn -0.6933 -0.7207 -0.0000
vn -0.6932 -0.7208 0.0000
vn -0.6935 -0.7205 0.0000
vn -0.6934 -0.7205 -0.0002
vn -0.6934 -0.7205 -0.0001
vn -0.6935 -0.7205 -0.0001
vn -0.6933 -0.7206 0.0000
s off
f 2//1 3//1 1//1
f 4//2 5//2 3//2
f 6//3 7//3 5//3
f 8//4 9//4 7//4
f 10//5 11//5 9//5
f 12//6 13//6 11//6
f 14//7 15//7 13//7
f 16//8 17//8 15//8
f 18//9 19//9 17//9
f 20//10 21//10 19//10
f 22//11 23//11 21//11
f 24//12 25//12 23//12
f 26//13 27//13 25//13
f 28//14 29//14 27//14
f 30//15 31//15 29//15
f 32//16 33//16 31//16
f 34//17 35//17 33//17
f 35//18 38//18 37//18
f 38//19 39//19 37//19
f 40//20 41//20 39//20
f 42//21 43//21 41//21
f 44//22 45//22 43//22
f 46//23 47//23 45//23
f 47//24 50//24 49//24
f 50//25 51//25 49//25
f 52//26 53//26 51//26
f 53//27 56//27 55//27
f 55//28 58//28 57//28
f 57//29 60//29 59//29
f 60//30 61//30 59//30
f 38//31 22//31 6//31
f 62//32 63//32 61//32
f 63//33 2//33 1//33
f 31//34 47//34 15//34
f 2//1 4//1 3//1
f 4//2 6//2 5//2
f 6//3 8//3 7//3
f 8//4 10//4 9//4
f 10//5 12//5 11//5
f 12//6 14//6 13//6
f 14//7 16//7 15//7
f 16//8 18//8 17//8
f 18//9 20//9 19//9
f 20//10 22//10 21//10
f 22//11 24//11 23//11
f 24//12 26//12 25//12
f 26//13 28//13 27//13
f 28//14 30//14 29//14
f 30//15 32//15 31//15
f 32//16 34//16 33//16
f 34//17 36//17 35//17
f 35//18 36//18 38//18
f 38//19 40//19 39//19
f 40//20 42//20 41//20
f 42//21 44//21 43//21
f 44//22 46//22 45//22
f 46//23 48//23 47//23
f 47//24 48//24 50//24
f 50//35 52//35 51//35
f 52//26 54//26 53//26
f 53//27 54//27 56//27
f 55//28 56//28 58//28
f 57//29 58//29 60//29
f 60//30 62//30 61//30
f 6//36 4//36 62//36
f 2//31 64//31 62//31
f 62//37 60//37 58//37
f 58//38 56//38 54//38
f 54//39 52//39 50//39
f 50//40 48//40 54//40
f 46//40 44//40 42//40
f 42//36 40//36 38//36
f 38//31 36//31 34//31
f 34//41 32//41 30//41
f 30//42 28//42 26//42
f 26//40 24//40 30//40
f 22//43 20//43 18//43
f 18//42 16//42 14//42
f 14//42 12//42 6//42
f 10//42 8//42 6//42
f 4//44 2//44 62//44
f 62//42 58//42 54//42
f 54//45 48//45 46//45
f 46//31 42//31 54//31
f 38//31 34//31 22//31
f 30//42 24//42 22//42
f 22//42 18//42 6//42
f 12//31 10//31 6//31
f 6//42 62//42 38//42
f 54//42 42//42 38//42
f 34//31 30//31 22//31
f 18//31 14//31 6//31
f 62//31 54//31 38//31
f 62//32 64//32 63//32
f 63//33 64//33 2//33
f 63//46 1//46 3//46
f 3//34 5//34 7//34
f 7//47 9//47 15//47
f 11//48 13//48 15//48
f 15//34 17//34 19//34
f 19//49 21//49 23//49
f 23//47 25//47 31//47
f 27//34 29//34 31//34
f 31//34 33//34 35//34
f 35//50 37//50 39//50
f 39//51 41//51 43//51
f 43//52 45//52 47//52
f 47//47 49//47 51//47
f 51//50 53//50 55//50
f 55//34 57//34 63//34
f 59//53 61//53 63//53
f 63//34 3//34 7//34
f 9//34 11//34 15//34
f 15//47 19//47 31//47
f 25//47 27//47 31//47
f 31//47 35//47 47//47
f 39//34 43//34 47//34
f 47//34 51//34 63//34
f 57//54 59//54 63//54
f 63//47 7//47 15//47
f 19//34 23//34 31//34
f 35//47 39//47 47//47
f 51//47 55//47 63//47
f 63//34 15//34 47//34
